# xmcd
#
# Track frame offsets: 
#        150
#        26218
#        47746
#        68143
#        93883
#        139537
#        173165
#        200385
#        222786
#        263979
#        305038
#        335195
#
# Disc length: 4795 seconds
#
# Revision: 0
# Processed by: cddbd v1.5.2PL0 Copyright (c) Steve Scherf et al.
# Submitted via: ExactAudioCopy v1.3
#
DISCID=b312b90c
DTITLE=Renee Geyer - Live At The Athenaeum
DYEAR=2004
DGENRE=Soul, Blues
TTITLE0=Really Really Love You (Live)
TTITLE1=Thieves In The Temple (Live)
TTITLE2=Morning Glory (Live)
TTITLE3=Midnight Train To Georgia (Live)
TTITLE4=Peace And Understanding (Live)
TTITLE5=Nasty Streak (Live)
TTITLE6=Killer Lover (Live)
TTITLE7=Close To You (Live)
TTITLE8=Love Don't Live Here Anymore (Live)
TTITLE9=It's A Man's Man's Man's World (Live)
TTITLE10=Sitting In Limbo (Live)
TTITLE11=Heading In The Right Direction (Live)
EXTD=
EXTT0=
EXTT1=
EXTT2=
EXTT3=
EXTT4=
EXTT5=
EXTT6=
EXTT7=
EXTT8=
EXTT9=
EXTT10=
EXTT11=
PLAYORDER=
